<?xml version="1.0" encoding="utf-8"?>
<!DOCTYPE svg PUBLIC "-//W3C//DTD SVG 1.1//EN" "http://www.w3.org/Graphics/SVG/1.1/DTD/svg11.dtd">
<svg xmlns="http://www.w3.org/2000/svg" xmlns:xlink="http://www.w3.org/1999/xlink" version="1.1" baseProfile="full" width="890" height="141" viewBox="0 0 890.00 141.00" enable-background="new 0 0 890.00 141.00" xml:space="preserve">
	<g>
		<path fill="#FFE5B4" fill-opacity="1" stroke-width="0.2" stroke-linejoin="round" d="M 84.2125,15.3375C 82.4459,15.3375 80.9375,14.7125 79.6875,13.4625C 78.4375,12.2125 77.8125,10.7042 77.8125,8.9375C 77.8125,7.17082 78.4375,5.66249 79.6875,4.41249C 80.9375,3.16249 82.4459,2.53749 84.2125,2.53749L 148.188,2.53749C 149.921,2.53749 151.413,3.16249 152.663,4.41249C 153.913,5.66249 154.538,7.17082 154.538,8.9375L 154.538,54.4875C 154.538,56.2542 153.913,57.7625 152.663,59.0125C 151.413,60.2625 149.921,60.8875 148.188,60.8875L 104.213,60.8875L 151.863,94.8625C 153.329,95.8625 154.204,97.2333 154.488,98.975C 154.771,100.717 154.392,102.304 153.35,103.738C 152.308,105.171 150.929,106.046 149.213,106.363C 147.496,106.679 145.904,106.313 144.438,105.262L 80.9375,59.9625C 78.8542,58.7125 77.8125,56.8875 77.8125,54.4875C 77.8125,52.7208 78.4375,51.2125 79.6875,49.9625C 80.9375,48.7125 82.4459,48.0875 84.2125,48.0875L 141.788,48.0875L 141.788,15.3375L 84.2125,15.3375 Z "/>
		<path fill="#FFE5B4" fill-opacity="1" stroke-width="0.2" stroke-linejoin="round" d="M 240.913,100.113C 240.913,101.829 240.3,103.313 239.075,104.563C 237.85,105.813 236.354,106.438 234.588,106.438C 232.821,106.438 231.313,105.813 230.063,104.563C 228.813,103.313 228.188,101.829 228.188,100.113L 228.188,89.6375L 206.713,104.962C 205.513,105.946 204.129,106.438 202.563,106.438L 177.013,106.438C 175.246,106.438 173.738,105.813 172.488,104.563C 171.238,103.313 170.613,101.829 170.613,100.113L 170.613,48.0875C 170.613,46.3042 171.238,44.7875 172.488,43.5375C 173.738,42.2875 175.246,41.6625 177.013,41.6625L 234.588,41.6625L 234.588,41.7375C 236.354,41.7375 237.85,42.35 239.075,43.575C 240.3,44.8 240.913,46.3042 240.913,48.0875L 240.913,76.9875C 240.963,77.1875 240.963,77.3958 240.913,77.6125L 240.913,100.113 Z M 228.188,74.0125L 228.188,54.4875L 183.413,54.4875L 183.413,93.7125L 200.613,93.7125L 228.188,74.0125 Z "/>
		<path fill="#FFE5B4" fill-opacity="1" stroke-width="0.2" stroke-linejoin="round" d="M 317.788,41.6625C 319.554,41.6625 321.063,42.2875 322.313,43.5375C 323.563,44.7875 324.188,46.3 324.188,48.075C 324.188,49.85 323.563,51.3625 322.313,52.6125C 321.063,53.8625 319.554,54.4875 317.788,54.4875L 266.613,54.4875L 266.613,93.7125L 317.788,93.7125C 319.554,93.7125 321.063,94.3375 322.313,95.5875C 323.563,96.8375 324.188,98.3333 324.188,100.075C 324.188,101.817 323.563,103.313 322.313,104.563C 321.063,105.813 319.554,106.438 317.788,106.438L 260.213,106.438C 258.446,106.438 256.938,105.813 255.688,104.563C 254.438,103.313 253.813,101.804 253.813,100.038L 253.813,48.0875C 253.813,46.3042 254.438,44.7875 255.688,43.5375C 256.938,42.2875 258.446,41.6625 260.213,41.6625L 317.788,41.6625 Z "/>
		<path fill="#FFE5B4" fill-opacity="1" stroke-width="0.2" stroke-linejoin="round" d="M 400.988,93.7125C 402.754,93.7125 404.263,94.3375 405.513,95.5875C 406.763,96.8375 407.388,98.3333 407.388,100.075C 407.388,101.817 406.763,103.313 405.513,104.563C 404.263,105.813 402.754,106.438 400.988,106.438L 343.413,106.438C 341.646,106.438 340.138,105.813 338.888,104.563C 337.638,103.313 337.013,101.804 337.013,100.038L 337.013,48.0875C 337.013,46.3042 337.638,44.7875 338.888,43.5375C 340.138,42.2875 341.646,41.6625 343.413,41.6625L 400.988,41.6625C 402.754,41.6625 404.263,42.2875 405.513,43.5375C 406.763,44.7875 407.388,46.3042 407.388,48.0875L 407.388,69.6375C 407.388,71.6708 406.613,73.3375 405.063,74.6375L 384.988,93.7125L 400.988,93.7125 Z M 349.813,93.7125L 366.463,93.7125L 394.588,66.9875L 394.588,54.4875L 349.813,54.4875L 349.813,93.7125 Z "/>
		<path fill="#FFE5B4" fill-opacity="1" stroke-width="0.2" stroke-linejoin="round" d="M 426.613,15.3375C 424.846,15.3375 423.338,14.7125 422.088,13.4625C 420.838,12.2125 420.213,10.7042 420.213,8.9375C 420.213,7.17082 420.838,5.66249 422.088,4.41249C 423.338,3.16249 424.846,2.53749 426.613,2.53749L 490.588,2.53749C 492.321,2.53749 493.813,3.16249 495.063,4.41249C 496.313,5.66249 496.938,7.17082 496.938,8.9375L 496.938,54.4875C 496.938,56.2542 496.313,57.7625 495.063,59.0125C 493.813,60.2625 492.321,60.8875 490.588,60.8875L 433.013,60.8875L 433.013,100.038C 433.013,101.804 432.388,103.313 431.138,104.563C 429.888,105.813 428.379,106.438 426.613,106.438C 424.846,106.438 423.338,105.813 422.088,104.563C 420.838,103.313 420.213,101.804 420.213,100.038L 420.213,54.4875C 420.213,52.7208 420.838,51.2125 422.088,49.9625C 423.338,48.7125 424.846,48.0875 426.613,48.0875L 484.188,48.0875L 484.188,15.3375L 426.613,15.3375 Z "/>
		<path fill="#FFE5B4" fill-opacity="1" stroke-width="0.2" stroke-linejoin="round" d="M 524.213,100.038C 524.213,101.804 523.588,103.313 522.338,104.563C 521.088,105.813 519.579,106.438 517.813,106.438C 516.046,106.438 514.538,105.813 513.288,104.563C 512.038,103.313 511.413,101.804 511.413,100.038L 511.413,69.6375C 511.413,67.5042 512.271,65.8125 513.987,64.5625L 539.288,43.2375C 540.438,42.1875 541.796,41.6625 543.362,41.6625L 575.388,41.6625C 577.154,41.6625 578.663,42.2875 579.913,43.5375C 581.163,44.7875 581.788,46.3 581.788,48.075C 581.788,49.85 581.163,51.3625 579.913,52.6125C 578.663,53.8625 577.154,54.4875 575.388,54.4875L 545.713,54.4875L 524.213,72.6125L 524.213,100.038 Z "/>
		<path fill="#FFE5B4" fill-opacity="1" stroke-width="0.2" stroke-linejoin="round" d="M 652.188,54.4875L 607.413,54.4875L 607.413,93.7125L 652.188,93.7125L 652.188,54.4875 Z M 601.013,41.6625L 658.588,41.6625L 658.588,41.7375C 660.354,41.7375 661.85,42.35 663.075,43.575C 664.3,44.8 664.913,46.3042 664.913,48.0875L 664.913,99.4875C 664.963,99.7375 664.987,99.9208 664.987,100.038C 664.987,101.804 664.362,103.313 663.112,104.563C 661.862,105.813 660.354,106.438 658.588,106.438L 601.013,106.438C 599.246,106.438 597.737,105.813 596.487,104.563C 595.237,103.313 594.612,101.804 594.612,100.038L 594.612,48.0875C 594.612,46.3042 595.237,44.7875 596.487,43.5375C 597.737,42.2875 599.246,41.6625 601.013,41.6625 Z "/>
		<path fill="#FFE5B4" fill-opacity="1" stroke-width="0.2" stroke-linejoin="round" d="M 677.813,8.9375C 677.813,7.17082 678.438,5.66249 679.688,4.41249C 680.938,3.16249 682.446,2.53749 684.213,2.53749C 685.979,2.53749 687.488,3.16249 688.738,4.41249C 689.988,5.66249 690.613,7.17082 690.613,8.9375L 690.613,93.6125L 741.788,93.6125L 741.788,8.9375C 741.788,7.17082 742.413,5.66249 743.663,4.41249C 744.913,3.16249 746.413,2.53749 748.163,2.53749C 749.913,2.53749 751.413,3.16249 752.663,4.41249C 753.913,5.66249 754.538,7.17082 754.538,8.9375L 754.538,100.038C 754.538,101.804 753.913,103.313 752.663,104.563C 751.413,105.813 749.921,106.438 748.188,106.438L 684.213,106.438C 682.446,106.438 680.938,105.813 679.688,104.563C 678.438,103.313 677.813,101.804 677.813,100.038L 677.813,8.9375 Z "/>
		<path fill="#FFE5B4" fill-opacity="1" stroke-width="0.2" stroke-linejoin="round" d="M 800.537,5.2625C 801.571,3.8125 802.962,2.92915 804.712,2.6125C 806.462,2.29584 808.054,2.64583 809.487,3.66249C 810.921,4.67917 811.792,6.05833 812.1,7.8C 812.408,9.54167 812.046,11.1458 811.012,12.6125L 781.637,54.4875L 811.012,96.3625C 812.046,97.8125 812.408,99.4125 812.1,101.163C 811.792,102.913 810.921,104.296 809.487,105.313C 808.054,106.329 806.462,106.679 804.712,106.363C 802.962,106.046 801.571,105.163 800.537,103.712L 768.662,58.2375C 767.879,57.1875 767.475,55.975 767.45,54.6C 767.425,53.225 767.804,51.9625 768.587,50.8125L 800.537,5.2625 Z "/>
	</g>
</svg>
