<?xml version="1.0" standalone="no"?>
<!DOCTYPE svg PUBLIC "-//W3C//DTD SVG 20010904//EN"
 "http://www.w3.org/TR/2001/REC-SVG-20010904/DTD/svg10.dtd">
<svg version="1.0" xmlns="http://www.w3.org/2000/svg"
 width="512.000000pt" height="512.000000pt" viewBox="0 0 512.000000 512.000000"
 preserveAspectRatio="xMidYMid meet">
<metadata>
Created by potrace 1.11, written by Peter Selinger 2001-2013
</metadata>
<g transform="translate(0.000000,512.000000) scale(0.100000,-0.100000)"
fill="#000000" stroke="none">
<path d="M0 2560 l0 -2560 2560 0 2560 0 0 2560 0 2560 -2560 0 -2560 0 0
-2560z m2349 2057 c13 -6 34 -25 45 -40 20 -28 21 -41 24 -425 4 -459 2 -491
-38 -535 l-28 -32 -419 -5 -418 -5 430 -306 c237 -169 436 -313 443 -322 60
-72 5 -187 -89 -187 -34 0 -99 44 -631 424 -326 233 -601 433 -612 445 -22 24
-25 85 -7 120 7 12 27 31 44 41 31 19 55 20 565 20 l532 0 -2 293 -3 292 -541
5 c-524 5 -543 6 -564 25 -61 54 -56 138 9 182 l34 23 601 0 c457 0 607 -3
625 -13z m1670 0 c13 -6 34 -25 45 -40 20 -28 21 -40 24 -435 2 -224 0 -427
-3 -451 -5 -32 -16 -54 -40 -78 l-33 -33 -536 0 -536 0 0 -342 c0 -189 -5
-361 -10 -383 -28 -121 -186 -126 -220 -7 -15 55 -12 837 3 882 7 19 27 44 46
57 l34 23 534 0 533 0 -2 293 -3 292 -542 5 -543 5 -25 25 c-54 55 -48 135 14
177 l34 23 601 0 c457 0 607 -3 625 -13z m-2474 -2279 c56 -44 55 -22 55 -853
l0 -765 460 0 460 0 0 785 0 785 28 31 c21 24 39 32 74 36 42 5 49 2 84 -30
l39 -35 3 -839 c2 -557 0 -850 -7 -874 -6 -19 -22 -46 -37 -60 l-26 -24 -606
-3 c-645 -3 -644 -3 -682 46 -20 24 -20 45 -20 887 l0 862 21 27 c39 50 108
61 154 24z m2201 -12 c28 -28 34 -41 34 -78 0 -42 -15 -66 -266 -424 -146
-208 -268 -384 -271 -391 -3 -7 117 -186 266 -398 255 -364 271 -389 271 -431
0 -34 -6 -51 -29 -76 -26 -29 -36 -33 -79 -33 -36 0 -56 6 -72 20 -21 19 -584
817 -608 862 -21 38 -13 78 26 139 103 158 547 783 577 812 49 46 104 45 151
-2z"/>
</g>
</svg>
